<mxfile host="Electron" agent="Mozilla/5.0 (Windows NT 10.0; Win64; x64) AppleWebKit/537.36 (KHTML, like Gecko) draw.io/25.0.2 Chrome/128.0.6613.186 Electron/32.2.5 Safari/537.36" version="25.0.2">
  <diagram name="Page-1" id="EdjUWbUTRgpF777AnUio">
    <mxGraphModel dx="827" dy="552" grid="0" gridSize="10" guides="1" tooltips="1" connect="1" arrows="1" fold="1" page="1" pageScale="1" pageWidth="850" pageHeight="1100" math="0" shadow="0">
      <root>
        <mxCell id="0" />
        <mxCell id="1" parent="0" />
        <mxCell id="33gt0j8Oc-9dUgp9ZtoJ-50" value="" style="rounded=0;whiteSpace=wrap;html=1;fillColor=none;dashed=1;strokeWidth=1;fontColor=#333333;strokeColor=#666666;shadow=0;" parent="1" vertex="1">
          <mxGeometry x="490" y="50" width="330" height="330" as="geometry" />
        </mxCell>
        <mxCell id="33gt0j8Oc-9dUgp9ZtoJ-41" value="" style="rounded=0;whiteSpace=wrap;html=1;fillColor=none;dashed=1;strokeWidth=1;fontColor=#333333;strokeColor=#666666;shadow=0;" parent="1" vertex="1">
          <mxGeometry x="39" y="50" width="390" height="170" as="geometry" />
        </mxCell>
        <mxCell id="33gt0j8Oc-9dUgp9ZtoJ-9" value="" style="edgeStyle=orthogonalEdgeStyle;rounded=0;orthogonalLoop=1;jettySize=auto;html=1;" parent="1" source="33gt0j8Oc-9dUgp9ZtoJ-2" target="33gt0j8Oc-9dUgp9ZtoJ-4" edge="1">
          <mxGeometry relative="1" as="geometry" />
        </mxCell>
        <mxCell id="33gt0j8Oc-9dUgp9ZtoJ-10" style="edgeStyle=orthogonalEdgeStyle;rounded=0;orthogonalLoop=1;jettySize=auto;html=1;entryX=0.5;entryY=0;entryDx=0;entryDy=0;" parent="1" source="33gt0j8Oc-9dUgp9ZtoJ-2" target="33gt0j8Oc-9dUgp9ZtoJ-3" edge="1">
          <mxGeometry relative="1" as="geometry" />
        </mxCell>
        <mxCell id="33gt0j8Oc-9dUgp9ZtoJ-11" style="edgeStyle=orthogonalEdgeStyle;rounded=0;orthogonalLoop=1;jettySize=auto;html=1;" parent="1" source="33gt0j8Oc-9dUgp9ZtoJ-2" target="33gt0j8Oc-9dUgp9ZtoJ-5" edge="1">
          <mxGeometry relative="1" as="geometry">
            <Array as="points">
              <mxPoint x="359" y="110" />
            </Array>
          </mxGeometry>
        </mxCell>
        <mxCell id="33gt0j8Oc-9dUgp9ZtoJ-2" value="Pull request created/&lt;div&gt;Pushed to pull request&lt;/div&gt;" style="rounded=1;whiteSpace=wrap;html=1;shadow=1;" parent="1" vertex="1">
          <mxGeometry x="169" y="60" width="120" height="50" as="geometry" />
        </mxCell>
        <mxCell id="33gt0j8Oc-9dUgp9ZtoJ-3" value="Check for warnings" style="rounded=1;whiteSpace=wrap;html=1;fillColor=#dae8fc;strokeColor=#6c8ebf;shadow=1;" parent="1" vertex="1">
          <mxGeometry x="49" y="165" width="100" height="40" as="geometry" />
        </mxCell>
        <mxCell id="33gt0j8Oc-9dUgp9ZtoJ-4" value="Build and Test" style="rounded=1;whiteSpace=wrap;html=1;fillColor=#dae8fc;strokeColor=#6c8ebf;shadow=1;" parent="1" vertex="1">
          <mxGeometry x="179" y="165" width="100" height="40" as="geometry" />
        </mxCell>
        <mxCell id="33gt0j8Oc-9dUgp9ZtoJ-5" value="Check for label" style="rounded=1;whiteSpace=wrap;html=1;fillColor=#dae8fc;strokeColor=#6c8ebf;shadow=1;" parent="1" vertex="1">
          <mxGeometry x="309" y="165" width="100" height="40" as="geometry" />
        </mxCell>
        <mxCell id="33gt0j8Oc-9dUgp9ZtoJ-14" style="edgeStyle=orthogonalEdgeStyle;rounded=0;orthogonalLoop=1;jettySize=auto;html=1;entryX=0.5;entryY=0;entryDx=0;entryDy=0;exitX=0.5;exitY=1;exitDx=0;exitDy=0;" parent="1" source="33gt0j8Oc-9dUgp9ZtoJ-12" target="33gt0j8Oc-9dUgp9ZtoJ-5" edge="1">
          <mxGeometry relative="1" as="geometry" />
        </mxCell>
        <mxCell id="33gt0j8Oc-9dUgp9ZtoJ-12" value="Added label/removed label" style="rounded=1;whiteSpace=wrap;html=1;shadow=1;" parent="1" vertex="1">
          <mxGeometry x="299" y="60" width="120" height="40" as="geometry" />
        </mxCell>
        <mxCell id="33gt0j8Oc-9dUgp9ZtoJ-18" value="" style="edgeStyle=orthogonalEdgeStyle;rounded=0;orthogonalLoop=1;jettySize=auto;html=1;" parent="1" source="33gt0j8Oc-9dUgp9ZtoJ-16" target="33gt0j8Oc-9dUgp9ZtoJ-17" edge="1">
          <mxGeometry relative="1" as="geometry" />
        </mxCell>
        <mxCell id="33gt0j8Oc-9dUgp9ZtoJ-21" style="edgeStyle=orthogonalEdgeStyle;rounded=0;orthogonalLoop=1;jettySize=auto;html=1;" parent="1" source="33gt0j8Oc-9dUgp9ZtoJ-16" target="33gt0j8Oc-9dUgp9ZtoJ-19" edge="1">
          <mxGeometry relative="1" as="geometry" />
        </mxCell>
        <mxCell id="33gt0j8Oc-9dUgp9ZtoJ-16" value="Pull request merged with main" style="rounded=1;whiteSpace=wrap;html=1;shadow=1;" parent="1" vertex="1">
          <mxGeometry x="500" y="65" width="120" height="50" as="geometry" />
        </mxCell>
        <mxCell id="33gt0j8Oc-9dUgp9ZtoJ-23" value="" style="edgeStyle=orthogonalEdgeStyle;rounded=0;orthogonalLoop=1;jettySize=auto;html=1;" parent="1" source="33gt0j8Oc-9dUgp9ZtoJ-17" target="33gt0j8Oc-9dUgp9ZtoJ-22" edge="1">
          <mxGeometry relative="1" as="geometry" />
        </mxCell>
        <mxCell id="33gt0j8Oc-9dUgp9ZtoJ-17" value="Create tag on merge" style="rounded=1;whiteSpace=wrap;html=1;fillColor=#dae8fc;strokeColor=#6c8ebf;shadow=1;" parent="1" vertex="1">
          <mxGeometry x="510" y="165" width="100" height="40" as="geometry" />
        </mxCell>
        <mxCell id="33gt0j8Oc-9dUgp9ZtoJ-19" value="Build and test" style="rounded=1;whiteSpace=wrap;html=1;fillColor=#dae8fc;strokeColor=#6c8ebf;shadow=1;" parent="1" vertex="1">
          <mxGeometry x="670" y="70" width="100" height="40" as="geometry" />
        </mxCell>
        <mxCell id="33gt0j8Oc-9dUgp9ZtoJ-28" value="" style="edgeStyle=orthogonalEdgeStyle;rounded=0;orthogonalLoop=1;jettySize=auto;html=1;exitX=0.5;exitY=1;exitDx=0;exitDy=0;entryX=1;entryY=0.5;entryDx=0;entryDy=0;" parent="1" source="33gt0j8Oc-9dUgp9ZtoJ-22" target="33gt0j8Oc-9dUgp9ZtoJ-24" edge="1">
          <mxGeometry relative="1" as="geometry" />
        </mxCell>
        <mxCell id="33gt0j8Oc-9dUgp9ZtoJ-38" value="&lt;font style=&quot;font-size: 13px;&quot;&gt;Yes&lt;/font&gt;" style="edgeLabel;html=1;align=center;verticalAlign=middle;resizable=0;points=[];" parent="33gt0j8Oc-9dUgp9ZtoJ-28" vertex="1" connectable="0">
          <mxGeometry x="0.1524" y="-4" relative="1" as="geometry">
            <mxPoint as="offset" />
          </mxGeometry>
        </mxCell>
        <mxCell id="33gt0j8Oc-9dUgp9ZtoJ-45" value="" style="edgeStyle=orthogonalEdgeStyle;rounded=0;orthogonalLoop=1;jettySize=auto;html=1;" parent="1" source="33gt0j8Oc-9dUgp9ZtoJ-22" target="33gt0j8Oc-9dUgp9ZtoJ-44" edge="1">
          <mxGeometry relative="1" as="geometry" />
        </mxCell>
        <mxCell id="33gt0j8Oc-9dUgp9ZtoJ-48" value="&lt;font style=&quot;font-size: 13px;&quot;&gt;No&lt;/font&gt;" style="edgeLabel;html=1;align=center;verticalAlign=middle;resizable=0;points=[];" parent="33gt0j8Oc-9dUgp9ZtoJ-45" vertex="1" connectable="0">
          <mxGeometry x="-0.6033" y="2" relative="1" as="geometry">
            <mxPoint y="-3" as="offset" />
          </mxGeometry>
        </mxCell>
        <mxCell id="33gt0j8Oc-9dUgp9ZtoJ-22" value="Succeeds" style="rhombus;whiteSpace=wrap;html=1;" parent="1" vertex="1">
          <mxGeometry x="659" y="145" width="80" height="80" as="geometry" />
        </mxCell>
        <mxCell id="33gt0j8Oc-9dUgp9ZtoJ-37" style="edgeStyle=orthogonalEdgeStyle;rounded=0;orthogonalLoop=1;jettySize=auto;html=1;" parent="1" source="33gt0j8Oc-9dUgp9ZtoJ-24" target="33gt0j8Oc-9dUgp9ZtoJ-31" edge="1">
          <mxGeometry relative="1" as="geometry">
            <Array as="points">
              <mxPoint x="560" y="275" />
            </Array>
          </mxGeometry>
        </mxCell>
        <mxCell id="33gt0j8Oc-9dUgp9ZtoJ-24" value="Create release" style="rounded=1;whiteSpace=wrap;html=1;fillColor=#dae8fc;strokeColor=#6c8ebf;shadow=1;" parent="1" vertex="1">
          <mxGeometry x="510" y="225" width="100" height="40" as="geometry" />
        </mxCell>
        <mxCell id="33gt0j8Oc-9dUgp9ZtoJ-26" value="Deploz to Azure" style="rounded=1;whiteSpace=wrap;html=1;fillColor=#dae8fc;strokeColor=#6c8ebf;shadow=1;" parent="1" vertex="1">
          <mxGeometry x="510" y="315" width="100" height="40" as="geometry" />
        </mxCell>
        <mxCell id="33gt0j8Oc-9dUgp9ZtoJ-33" value="" style="edgeStyle=orthogonalEdgeStyle;rounded=0;orthogonalLoop=1;jettySize=auto;html=1;exitX=0;exitY=0.5;exitDx=0;exitDy=0;entryX=1;entryY=0.5;entryDx=0;entryDy=0;" parent="1" source="33gt0j8Oc-9dUgp9ZtoJ-31" target="33gt0j8Oc-9dUgp9ZtoJ-26" edge="1">
          <mxGeometry relative="1" as="geometry" />
        </mxCell>
        <mxCell id="33gt0j8Oc-9dUgp9ZtoJ-39" value="&lt;font style=&quot;font-size: 13px;&quot;&gt;Yes&lt;/font&gt;" style="edgeLabel;html=1;align=center;verticalAlign=middle;resizable=0;points=[];" parent="33gt0j8Oc-9dUgp9ZtoJ-33" vertex="1" connectable="0">
          <mxGeometry x="-0.3619" y="-1" relative="1" as="geometry">
            <mxPoint as="offset" />
          </mxGeometry>
        </mxCell>
        <mxCell id="33gt0j8Oc-9dUgp9ZtoJ-47" value="" style="edgeStyle=orthogonalEdgeStyle;rounded=0;orthogonalLoop=1;jettySize=auto;html=1;" parent="1" source="33gt0j8Oc-9dUgp9ZtoJ-31" target="33gt0j8Oc-9dUgp9ZtoJ-46" edge="1">
          <mxGeometry relative="1" as="geometry" />
        </mxCell>
        <mxCell id="33gt0j8Oc-9dUgp9ZtoJ-49" value="&lt;font style=&quot;font-size: 13px;&quot;&gt;No&lt;/font&gt;" style="edgeLabel;html=1;align=center;verticalAlign=middle;resizable=0;points=[];" parent="33gt0j8Oc-9dUgp9ZtoJ-47" vertex="1" connectable="0">
          <mxGeometry x="-0.6234" relative="1" as="geometry">
            <mxPoint x="3" as="offset" />
          </mxGeometry>
        </mxCell>
        <mxCell id="33gt0j8Oc-9dUgp9ZtoJ-31" value="Succeeds" style="rhombus;whiteSpace=wrap;html=1;" parent="1" vertex="1">
          <mxGeometry x="659" y="295" width="80" height="80" as="geometry" />
        </mxCell>
        <mxCell id="33gt0j8Oc-9dUgp9ZtoJ-44" value="" style="ellipse;html=1;shape=endState;fillColor=#000000;strokeColor=#ff0000;shadow=1;" parent="1" vertex="1">
          <mxGeometry x="770" y="169" width="30" height="32" as="geometry" />
        </mxCell>
        <mxCell id="33gt0j8Oc-9dUgp9ZtoJ-46" value="" style="ellipse;html=1;shape=endState;fillColor=#000000;strokeColor=#ff0000;shadow=1;" parent="1" vertex="1">
          <mxGeometry x="770" y="319" width="30" height="32" as="geometry" />
        </mxCell>
      </root>
    </mxGraphModel>
  </diagram>
</mxfile>
